<svg id="Layer_1" data-name="Layer 1" xmlns="http://www.w3.org/2000/svg" viewBox="0 0 283.46 283.46"><defs><style>.cls-1{fill:#4a98f7;}.cls-2{fill:#fff;}.cls-3{fill:#1f9b12;}.cls-4{fill:#2baf19;}.cls-5{fill:#3cd322;}.cls-6{fill:#4ce52c;}.cls-7{fill:#70ed51;}.cls-8{font-size:32.44px;font-family:Versa-Versa, Versa;letter-spacing:0.05em;}.cls-9{font-size:13.52px;font-family:MontserratAlternates-Regular, Montserrat Alternates;}.cls-10{letter-spacing:-0.01em;}.cls-11{letter-spacing:-0.01em;}.cls-12{letter-spacing:0em;}.cls-13{letter-spacing:0em;}</style></defs><path class="cls-1" d="M217.64,94.87s0-4.09,8.77-4.59c.77,0,1.25-1,1-2-.69-3.19.53-9.92,18.46-16.65,0,0,14-2.31,14.09,10.44,0,0,.05,8.12-17.62,8.12,0,0-3.08,1-3.74,3.78-.21.87-.75,1.5-1.44,1.49-4.07,0-16,.16-16,4Z"/><path class="cls-1" d="M89,44.46h93.55s13.62-.12,21.73,9.34c5.67,6.61,16.16,22.13,18,36.64a16.42,16.42,0,0,0,12,7.82s12.41,5.89,12.41,29.08v51c.15,5.38.15,15.9-13.92,18.55H196.72s-12.63,2.32-12.63-20.87l-95.1.19Z"/><path class="cls-2" d="M206,92.55H97.05V55.44l86.24-.56c7.27.35,13.77,4,17,9.54L212,84.27C214.21,88.08,211,92.55,206,92.55Z"/><path class="cls-2" d="M186.19,137c3.35-6.32,11.89-17.47,30.85-18.84a3.15,3.15,0,0,1,3.39,3.76c-1.54,6.84-7.59,20.24-31.45,19.68A3.17,3.17,0,0,1,186.19,137Z"/><path class="cls-2" d="M70.77,35.5V179.57c0,8.34,12.25,12.51,19.42,6.62l87.63-72c4.45-3.65,4.45-9.57,0-13.23l-87.63-72C83,23,70.77,27.17,70.77,35.5Z"/><path class="cls-3" d="M83.2,51.72V163.35c0,6.46,9.49,9.69,15,5.13l67.89-55.82a6.37,6.37,0,0,0,0-10.25L98.25,46.6C92.69,42,83.2,45.26,83.2,51.72Z"/><path class="cls-4" d="M70.77,51.72V163.35c0,6.46,9.5,9.69,15,5.13l67.9-55.82a6.38,6.38,0,0,0,0-10.25L85.82,46.6C80.27,42,70.77,45.26,70.77,51.72Z"/><path class="cls-5" d="M55,51.72V163.35c0,6.46,9.5,9.69,15,5.13L138,112.66a6.38,6.38,0,0,0,0-10.25L70.05,46.6C64.5,42,55,45.26,55,51.72Z"/><path class="cls-6" d="M39.23,51.72V163.35c0,6.46,9.5,9.69,15.05,5.13l67.9-55.82a6.38,6.38,0,0,0,0-10.25L54.28,46.6C48.73,42,39.23,45.26,39.23,51.72Z"/><path class="cls-7" d="M23.46,51.72V163.35c0,6.46,9.5,9.69,15,5.13l67.9-55.82a6.38,6.38,0,0,0,0-10.25L38.51,46.6C33,42,23.46,45.26,23.46,51.72Z"/><text class="cls-8" transform="translate(31.64 234.84)">BENGKEL - IN</text><text class="cls-9" transform="translate(66.57 253.8)">We <tspan class="cls-10" x="27.87" y="0">c</tspan><tspan x="35.36" y="0">a</tspan><tspan class="cls-11" x="44.52" y="0">n</tspan><tspan class="cls-12" x="53.56" y="0">’t fix anythi</tspan><tspan class="cls-13" x="130.55" y="0">n</tspan><tspan x="139.73" y="0">g</tspan></text></svg>